<svg xmlns="http://www.w3.org/2000/svg" viewBox="0 0 570.67 472.61"><defs><style>.cls-1{fill:#02cda0;}.cls-2{stroke:#02cda0;stroke-miterlimit:10;stroke-width:2px;}</style></defs><title>Asset 4</title><g id="Layer_2" data-name="Layer 2"><g id="Nov"><polygon class="cls-1" points="341.87 340.07 195.12 142.95 154.42 173.25 249.31 300.71 341.87 340.07"/><polygon class="cls-1" points="17.04 265.68 170.64 472.61 211.62 442.1 109.67 304.57 17.04 265.68"/><polygon class="cls-1" points="341.34 345.28 255.23 308.66 255.42 308.92 241.28 302.73 74.27 231.72 30.03 265.79 297.33 378.01 297.31 378.06 341.34 345.28"/><line class="cls-2" x1="0.39" y1="259.06" x2="160.55" y2="326.83"/><line class="cls-1" x1="292.21" y1="252.5" x2="347.49" y2="119.09"/><path class="cls-1" d="M346.56,115.07A92,92,0,0,0,326,126.73C306.54,141.2,295,160.33,292,184a84.85,84.85,0,0,0,6.64,46.62Z"/><path class="cls-1" d="M387.94,121.34A82.53,82.53,0,0,0,346.11,125l-49.32,119a105.52,105.52,0,0,0,10.59,17.42c15.63,21,35.17,33.17,58.72,37.08,23.41,3.71,45-1.82,64.46-16.29Q460,260.35,465,224.91c3.2-23.83-2.86-46-18.49-67Q423.34,126.68,387.94,121.34ZM430,219.27c-.72,13.9-7.41,25.41-19.54,34.44C398,263,385,266.14,371.32,263s-25.11-10.83-34.49-23.42c-9.23-12.4-13.31-25.52-12.4-39.56,1.11-14.19,7.8-25.69,20.12-34.87,11.74-8.74,24.45-11.37,38.36-8.36s25.5,10.54,34.58,22.74C426.87,192.11,431,205.23,430,219.27Z"/><line class="cls-2" x1="286.79" y1="260.28" x2="353.36" y2="98.51"/><line class="cls-2" x1="376.62" y1="81.2" x2="551.38" y2="205.42"/><polygon class="cls-1" points="570.21 174.89 570.67 174.55 512.53 0 483.27 21.78 526.12 143.46 570.21 174.89"/><polygon class="cls-1" points="527.27 146.74 527.31 146.86 515.88 138.62 419.29 69.76 419.63 69.28 419.55 69.22 390.48 90.86 541.02 196.62 568.52 176.15 527.27 146.74"/></g></g></svg>